<svg width="41" height="40" viewBox="0 0 41 40" fill="none" xmlns="http://www.w3.org/2000/svg">
<rect x="0.824707" width="39.7251" height="39.7251" rx="7.44846" fill="white"/>
<path d="M31.1472 13.8625C30.3772 14.2125 29.5472 14.4425 28.6872 14.5525C29.5672 14.0225 30.2472 13.1825 30.5672 12.1725C29.7372 12.6725 28.8172 13.0225 27.8472 13.2225C27.0572 12.3625 25.9472 11.8625 24.6872 11.8625C22.3372 11.8625 20.4172 13.7825 20.4172 16.1525C20.4172 16.4925 20.4572 16.8225 20.5272 17.1325C16.9672 16.9525 13.7972 15.2425 11.6872 12.6525C11.3172 13.2825 11.1072 14.0225 11.1072 14.8025C11.1072 16.2925 11.8572 17.6125 13.0172 18.3625C12.3072 18.3625 11.6472 18.1625 11.0672 17.8625V17.8925C11.0672 19.9725 12.5472 21.7125 14.5072 22.1025C13.878 22.2748 13.2173 22.2987 12.5772 22.1725C12.8488 23.025 13.3808 23.771 14.0983 24.3055C14.8157 24.84 15.6827 25.1362 16.5772 25.1525C15.0609 26.353 13.1812 27.0019 11.2472 26.9925C10.9072 26.9925 10.5672 26.9725 10.2272 26.9325C12.1272 28.1525 14.3872 28.8625 16.8072 28.8625C24.6872 28.8625 29.0172 22.3225 29.0172 16.6525C29.0172 16.4625 29.0172 16.2825 29.0072 16.0925C29.8472 15.4925 30.5672 14.7325 31.1472 13.8625Z" fill="black"/>
</svg>
